<svg width="13" height="15" viewBox="0 0 13 15" fill="none" xmlns="http://www.w3.org/2000/svg">
<path fill-rule="evenodd" clip-rule="evenodd" d="M10.3508 0.0370616C9.91605 0.137785 9.45546 0.475523 9.258 0.838331C9.13272 1.06854 9.03172 1.48566 9.02963 1.78146C9.02609 2.28253 9.31586 2.65815 9.82033 2.80644C10.001 2.85954 10.1063 2.86546 10.8636 2.86514C11.4836 2.86488 11.7497 2.85397 11.8718 2.82382C12.0702 2.77483 12.0589 2.71501 11.9746 3.36398C11.94 3.63008 11.9117 3.85577 11.9115 3.86551C11.9115 3.87522 11.8371 3.86533 11.7464 3.84352C11.5463 3.79534 9.99107 3.78748 9.72647 3.83328C9.50332 3.87193 9.20667 4.00843 9.02688 4.15519C8.85741 4.29356 8.66941 4.54609 8.60577 4.72079C8.58095 4.789 8.26198 6.14986 7.89695 7.74498C7.53195 9.3401 7.22546 10.6524 7.21592 10.6613C7.20637 10.6702 5.75857 10.5814 3.99863 10.4639C1.21326 10.2781 0.778268 10.2551 0.641037 10.2868C0.252074 10.3763 0.0280664 10.6221 0.00182783 10.9879C-0.0103431 11.1575 0.0302473 11.3331 0.37138 12.5859C0.654946 13.6274 0.78301 14.0478 0.863844 14.2026C1.05346 14.5654 1.50561 14.8926 1.93062 14.9744C2.04546 14.9965 3.37405 15.0037 6.30174 14.9982L10.5079 14.9904L10.7442 14.882C11.0805 14.7279 11.3211 14.4901 11.4503 14.1845C11.4912 14.0875 11.641 12.8634 12.0225 9.50759C12.6556 3.93864 12.8804 2.07853 12.9459 1.86852C13.0095 1.66464 13.0198 0.999107 12.9621 0.822996C12.8626 0.519419 12.5335 0.199567 12.1889 0.0714863C12.0381 0.0154508 11.9503 0.0087066 11.2791 0.00175714C10.7094 -0.0041367 10.493 0.00410302 10.3508 0.0370616Z" fill="#757B8C"/>
</svg>
