<svg width="15" height="15" viewBox="0 0 15 15" fill="none" xmlns="http://www.w3.org/2000/svg">
<path fill-rule="evenodd" clip-rule="evenodd" d="M3.36148 0.0388548C2.16793 0.239667 1.07991 1.22565 0.656819 2.48981C0.515233 2.91295 0.457601 3.27536 0.457044 3.7463C0.455461 5.13575 1.12244 6.33625 2.35258 7.15806C2.67805 7.37549 3.22781 7.65452 3.59728 7.78983C4.12385 7.98264 4.88768 8.14237 5.28322 8.14237C5.37385 8.14237 5.44802 8.15347 5.44802 8.16701C5.44802 8.18058 5.36301 8.27331 5.25909 8.37304C4.83668 8.77859 4.43411 8.83841 3.46932 8.63903C2.94627 8.53095 2.48238 8.49941 2.18443 8.5517C1.63729 8.64771 1.1405 8.90614 0.766307 9.28942C0.53669 9.52461 0.433476 9.66865 0.290834 9.95299C-0.276304 11.0834 -0.00113378 12.4204 1.00401 13.418C1.5594 13.9692 2.19844 14.3096 2.98895 14.4751C3.41524 14.5644 4.07633 14.5642 4.50666 14.4747C5.84487 14.1963 6.85694 13.3655 7.53869 11.9856C7.86376 11.3277 8.05298 10.6582 8.12178 9.92277C8.14101 9.71727 8.16519 9.54911 8.17548 9.54911C8.1858 9.54911 8.27365 9.63181 8.37074 9.73286C8.78372 10.1628 8.84425 10.5607 8.6438 11.5273C8.53335 12.0601 8.50365 12.4784 8.55396 12.7931C8.70721 13.752 9.37173 14.5318 10.3141 14.8584C10.5186 14.9293 10.9504 15 11.1789 15C11.9681 15 12.8118 14.6168 13.4448 13.9709C14.1628 13.2382 14.5417 12.2989 14.543 11.2489C14.5445 9.85947 13.8776 8.65896 12.6474 7.83716C12.3198 7.61829 11.7704 7.34014 11.3988 7.20501C10.8616 7.00967 10.1126 6.85285 9.71678 6.85285C9.62615 6.85285 9.55198 6.84174 9.55198 6.8282C9.55198 6.81463 9.63699 6.72191 9.74091 6.62218C10.1634 6.21651 10.5665 6.15728 11.539 6.358C12.0545 6.46441 12.5191 6.49554 12.8156 6.44352C13.3627 6.34751 13.8595 6.08908 14.2337 5.7058C14.4633 5.47061 14.5665 5.32657 14.7092 5.04223C15.2763 3.91182 15.0011 2.57486 13.996 1.57724C13.4406 1.02601 12.8016 0.685663 12.011 0.520107C11.5848 0.430838 10.9237 0.431013 10.4933 0.520547C9.15513 0.798906 8.14306 1.62973 7.46131 3.00957C7.13624 3.66749 6.94702 4.33701 6.87822 5.07244C6.85899 5.27797 6.83481 5.44611 6.82452 5.44611C6.8142 5.44611 6.72634 5.3634 6.62926 5.26235C6.21628 4.83239 6.15575 4.43454 6.3562 3.46788C6.46665 2.93516 6.49635 2.51686 6.44604 2.20216C6.21514 0.757348 4.83676 -0.209347 3.36148 0.0388548ZM7.90046 6.69278C8.21286 6.84538 8.39117 7.13786 8.39117 7.49761C8.39117 7.95577 8.09642 8.30311 7.64742 8.37407C7.23506 8.43925 6.8397 8.22841 6.67003 7.85287C6.58573 7.66633 6.58529 7.32985 6.66909 7.14443C6.88517 6.66631 7.43413 6.46497 7.90046 6.69278Z" fill="#757B8C"/>
</svg>
