<svg width="11" height="15" viewBox="0 0 11 15" fill="none" xmlns="http://www.w3.org/2000/svg">
<path fill-rule="evenodd" clip-rule="evenodd" d="M5.40911 0.0597505C5.11528 0.152999 4.94121 0.255421 4.7386 0.454302C4.21636 0.966937 4.11776 1.793 4.50759 2.38931C4.64918 2.60589 4.93183 2.85559 5.15877 2.96459L5.34235 3.05276V3.26187V3.471H5.04358C4.66754 3.471 4.44304 3.51678 4.19854 3.64328C3.95768 3.76788 3.79596 3.94167 3.66135 4.22056L3.55661 4.43756V8.36931V12.3011L3.63408 12.4894C3.74199 12.7517 3.9929 13.0111 4.26667 13.1434C4.48292 13.2479 4.49908 13.2505 5.04579 13.2671C5.35283 13.2764 5.61652 13.2963 5.63174 13.3113C5.647 13.3263 5.66906 13.4959 5.68084 13.6881C5.71422 14.234 5.85037 14.5124 6.21563 14.7818C6.51941 15.0059 6.53086 15.007 8.41647 14.9968L10.0988 14.9878L10.3069 14.8934C10.5585 14.7793 10.7853 14.5528 10.9105 14.2905L11 14.1031V12.727V11.3509L10.9054 11.1745C10.7737 10.9289 10.5524 10.7079 10.325 10.5949L10.1322 10.499L8.86051 10.4826C7.85061 10.4696 7.57747 10.457 7.53371 10.4213C7.48395 10.3807 7.47857 10.232 7.47857 8.89355C7.47857 7.74728 7.48805 7.40308 7.5203 7.37687C7.54583 7.3561 7.90532 7.33805 8.44655 7.33035C9.27136 7.31862 9.34403 7.31275 9.5229 7.24329C9.79013 7.13949 10.0535 6.89438 10.1898 6.62273L10.2991 6.40481V5.40412V4.40342L10.1898 4.1855C10.0542 3.91516 9.79053 3.66936 9.5229 3.56379C9.33432 3.48939 9.30634 3.48794 7.87077 3.47769L6.41046 3.46724V3.25807V3.0489L6.61814 2.94051C7.2045 2.63443 7.54877 1.96128 7.44499 1.32368C7.35053 0.743187 6.90386 0.232092 6.34067 0.0600453C6.07898 -0.0199003 5.66052 -0.0200313 5.40911 0.0597505ZM6.40385 4.51128C6.39391 5.53799 6.39274 5.55316 6.3153 5.67544C6.20896 5.84336 6.01005 5.94057 5.81666 5.91918C5.64813 5.90053 5.52617 5.82337 5.41745 5.66656C5.34345 5.55985 5.34235 5.54297 5.34235 4.51462V3.471H5.87814H6.41393L6.40385 4.51128ZM0.335619 4.91589C0.289724 4.9343 0.216959 4.98165 0.173867 5.0211C-0.0838141 5.25726 -0.0512702 5.62705 0.246232 5.84342C0.336354 5.90899 0.379646 5.91197 1.2368 5.91197C2.09396 5.91197 2.13725 5.90899 2.22738 5.84342C2.55505 5.60509 2.55509 5.2033 2.22744 4.96481C2.13829 4.8999 2.08765 4.8959 1.27616 4.88935C0.752583 4.88512 0.386555 4.89545 0.335619 4.91589ZM0.276106 7.39171C0.112017 7.4711 0.0239982 7.61435 0.00887779 7.82657C-0.00734414 8.05444 0.0823772 8.20346 0.301206 8.31197C0.442831 8.38222 0.487024 8.38569 1.2368 8.38569C1.98658 8.38569 2.03078 8.38222 2.1724 8.31197C2.39123 8.20346 2.48095 8.05444 2.46473 7.82657C2.44944 7.61176 2.35996 7.46861 2.19206 7.3904C2.0231 7.3117 0.439226 7.31278 0.276106 7.39171ZM0.301206 9.83553C0.0823772 9.94404 -0.00734414 10.0931 0.00887779 10.3209C0.0241651 10.5357 0.113653 10.6789 0.281546 10.7571C0.377509 10.8018 0.529949 10.8103 1.2368 10.8103C1.94366 10.8103 2.0961 10.8018 2.19206 10.7571C2.35996 10.6789 2.44944 10.5357 2.46473 10.3209C2.48095 10.0931 2.39123 9.94404 2.1724 9.83553C2.03078 9.76528 1.98658 9.76181 1.2368 9.76181C0.487024 9.76181 0.442831 9.76528 0.301206 9.83553ZM0.335619 12.2552C0.289724 12.2736 0.216959 12.3209 0.173867 12.3604C-0.0838141 12.5965 -0.0512702 12.9663 0.246232 13.1827C0.336354 13.2483 0.379646 13.2512 1.2368 13.2512C2.09396 13.2512 2.13725 13.2483 2.22738 13.1827C2.55505 12.9444 2.55509 12.5426 2.22744 12.3041C2.13829 12.2392 2.08765 12.2352 1.27616 12.2286C0.752583 12.2244 0.386555 12.2347 0.335619 12.2552Z" fill="#757B8C"/>
</svg>
