<svg width="20" height="18" viewBox="0 0 20 18" fill="none" xmlns="http://www.w3.org/2000/svg">
<path d="M20 5.0597C20 2.2697 17.76 0.00969482 14.97 -0.000305176H14.96H5.05C2.27 -0.000305176 0 2.2497 0 5.0397V5.0497C0 5.0497 0.006 9.4757 0.014 11.7017C0.015 12.1197 0.495 12.3537 0.822 12.0937C3.198 10.2087 7.447 6.7717 7.5 6.7267C8.21 6.1577 9.11 5.8367 10.03 5.8367C10.95 5.8367 11.85 6.1577 12.56 6.7377C12.613 6.7727 16.767 10.1067 19.179 12.0227C19.507 12.2837 19.989 12.0497 19.99 11.6327C20 9.42369 20 5.0597 20 5.0597Z" fill="#ECD126"/>
<path d="M19.4761 15.3263C18.6101 16.9583 16.9061 18.0003 15.0301 18.0003H5.05013C3.17413 18.0003 1.47013 16.9583 0.604128 15.3263C0.410128 14.9613 0.502128 14.5063 0.825128 14.2483L8.25013 8.30931C8.77013 7.88931 9.40013 7.68031 10.0301 7.68031C10.0341 7.68031 10.0371 7.68031 10.0401 7.68031C10.0431 7.68031 10.0471 7.68031 10.0501 7.68031C10.6801 7.68031 11.3101 7.88931 11.8301 8.30931L19.2551 14.2483C19.5781 14.5063 19.6701 14.9613 19.4761 15.3263Z" fill="#ECD126" fill-opacity="0.4"/>
</svg>
