<svg width="28" height="28" viewBox="0 0 28 28" fill="none" xmlns="http://www.w3.org/2000/svg">
<path d="M18.8982 18.1566C18.0061 18.9455 16.892 19.9272 14.8719 19.9272H13.664C12.2022 19.9272 10.8726 19.3977 9.92089 18.438C8.99125 17.5002 8.47949 16.2167 8.47949 14.8235V13.1765C8.47949 11.7832 8.99125 10.4998 9.92089 9.56202C10.8726 8.60229 12.2022 8.07362 13.664 8.07362H14.8719C16.8945 8.07362 18.0061 9.0545 18.8982 9.84344C19.8246 10.6568 20.6237 11.3676 22.7547 11.3676C23.0798 11.3676 23.4043 11.3417 23.7252 11.2904L23.7178 11.2717C23.5902 10.9558 23.4405 10.6492 23.2698 10.3542L21.8455 7.8955C21.2032 6.78711 20.2795 5.86671 19.1671 5.22681C18.0548 4.58692 16.793 4.25007 15.5086 4.25012H12.6592C11.3748 4.25007 10.113 4.58692 9.00067 5.22681C7.88831 5.86671 6.96457 6.78711 6.32229 7.8955L4.89803 10.3542C4.25598 11.4627 3.91797 12.7201 3.91797 14C3.91797 15.2799 4.25598 16.5373 4.89803 17.6458L6.32229 20.1045C6.96457 21.2129 7.88831 22.1333 9.00067 22.7732C10.113 23.4131 11.3748 23.7499 12.6592 23.7499H15.5086C16.793 23.7499 18.0548 23.4131 19.1671 22.7732C20.2795 22.1333 21.2032 21.2129 21.8455 20.1045L23.2698 17.6498C23.4405 17.3548 23.5902 17.0483 23.7178 16.7324L23.7252 16.7145C23.4044 16.6614 23.0799 16.6342 22.7547 16.6332C20.6237 16.6332 19.8246 17.34 18.8982 18.1574" fill="#006BFF"/>
<path d="M14.8713 9.5661H13.6633C11.4384 9.5661 9.97656 11.1497 9.97656 13.1765V14.8235C9.97656 16.8503 11.4384 18.4339 13.6633 18.4339H14.8713C18.1132 18.4339 17.8586 15.1399 22.7541 15.1399C23.2179 15.1394 23.6808 15.1819 24.1367 15.2668C24.2853 14.4288 24.2853 13.5713 24.1367 12.7332C23.6807 12.8178 23.2179 12.8602 22.7541 12.8601C17.8569 12.8601 18.1132 9.5661 14.8713 9.5661Z" fill="#006BFF"/>
<path d="M26.9499 16.4705C26.1162 15.8621 25.1548 15.4502 24.1381 15.266C24.1381 15.2749 24.1381 15.2822 24.1381 15.2904C24.0506 15.776 23.9138 16.2515 23.73 16.7096C24.5698 16.8392 25.3667 17.1663 26.0545 17.6637C26.0545 17.6702 26.0504 17.6783 26.048 17.6856C25.1627 20.5422 23.2785 22.9876 20.7378 24.5776C18.197 26.1676 15.1682 26.7967 12.2016 26.3506C9.23492 25.9045 6.52726 24.4128 4.57045 22.1465C2.61364 19.8803 1.53748 16.9897 1.53748 14C1.53748 11.0103 2.61364 8.11974 4.57045 5.85346C6.52726 3.58717 9.23492 2.0955 12.2016 1.64941C15.1682 1.20332 18.197 1.8324 20.7378 3.42238C23.2785 5.01237 25.1627 7.45777 26.048 10.3144C26.048 10.3217 26.0521 10.3298 26.0545 10.3363C25.3668 10.8338 24.5699 11.1606 23.73 11.2896C23.9136 11.7483 24.0503 12.2244 24.1381 12.7105C24.1376 12.718 24.1376 12.7256 24.1381 12.7332C25.1547 12.5493 26.1162 12.1377 26.9499 11.5295C27.7514 10.9382 27.5963 10.2704 27.4747 9.87516C26.4837 6.67233 24.3726 3.93004 21.5249 2.14661C18.6772 0.363174 15.282 -0.343051 11.9561 0.156266C8.63029 0.655583 5.59456 2.32731 3.40059 4.86766C1.20662 7.40801 0 10.6484 0 14C0 17.3516 1.20662 20.592 3.40059 23.1323C5.59456 25.6727 8.63029 27.3444 11.9561 27.8437C15.282 28.3431 18.6772 27.6368 21.5249 25.8534C24.3726 24.07 26.4837 21.3277 27.4747 18.1248C27.5963 17.7296 27.7514 17.0618 26.9499 16.4705Z" fill="#006BFF"/>
<path d="M23.7242 11.2895C23.4035 11.3426 23.0789 11.3698 22.7538 11.3709C20.6227 11.3709 19.8236 10.6641 18.8981 9.84668C18.0051 9.05775 16.8935 8.07605 14.871 8.07605H13.663C12.2004 8.07605 10.8716 8.60553 9.91991 9.56527C8.99027 10.503 8.47852 11.7865 8.47852 13.1797V14.8267C8.47852 16.22 8.99027 17.5034 9.91991 18.4412C10.8716 19.401 12.2004 19.9296 13.663 19.9296H14.871C16.8935 19.9296 18.0051 18.9487 18.8981 18.1598C19.8236 17.3465 20.6227 16.6356 22.7538 16.6356C23.0788 16.6357 23.4033 16.6615 23.7242 16.7129C23.9084 16.2549 24.0452 15.7793 24.1323 15.2936C24.1328 15.2855 24.1328 15.2773 24.1323 15.2692C23.6763 15.185 23.2135 15.1428 22.7497 15.1431C17.8525 15.1431 18.1088 18.438 14.8669 18.438H13.6589C11.434 18.438 9.97215 16.8536 9.97215 14.8267V13.1765C9.97215 11.1496 11.434 9.56608 13.6589 9.56608H14.8669C18.1088 9.56608 17.8541 12.8593 22.7497 12.8593C23.2135 12.8601 23.6764 12.8179 24.1323 12.7332C24.1323 12.7259 24.1323 12.7186 24.1323 12.7104C24.0446 12.2243 23.9078 11.7483 23.7242 11.2895Z" fill="#0AE8F0"/>
<path d="M23.7242 11.2895C23.4035 11.3426 23.0789 11.3698 22.7538 11.3709C20.6227 11.3709 19.8236 10.6641 18.8981 9.84668C18.0051 9.05775 16.8935 8.07605 14.871 8.07605H13.663C12.2004 8.07605 10.8716 8.60553 9.91991 9.56527C8.99027 10.503 8.47852 11.7865 8.47852 13.1797V14.8267C8.47852 16.22 8.99027 17.5034 9.91991 18.4412C10.8716 19.401 12.2004 19.9296 13.663 19.9296H14.871C16.8935 19.9296 18.0051 18.9487 18.8981 18.1598C19.8236 17.3465 20.6227 16.6356 22.7538 16.6356C23.0788 16.6357 23.4033 16.6615 23.7242 16.7129C23.9084 16.2549 24.0452 15.7793 24.1323 15.2936C24.1328 15.2855 24.1328 15.2773 24.1323 15.2692C23.6763 15.185 23.2135 15.1428 22.7497 15.1431C17.8525 15.1431 18.1088 18.438 14.8669 18.438H13.6589C11.434 18.438 9.97215 16.8536 9.97215 14.8267V13.1765C9.97215 11.1496 11.434 9.56608 13.6589 9.56608H14.8669C18.1088 9.56608 17.8541 12.8593 22.7497 12.8593C23.2135 12.8601 23.6764 12.8179 24.1323 12.7332C24.1323 12.7259 24.1323 12.7186 24.1323 12.7104C24.0446 12.2243 23.9078 11.7483 23.7242 11.2895Z" fill="#0AE8F0"/>
</svg>
