<svg width="18" height="18" viewBox="0 0 18 18" fill="none" xmlns="http://www.w3.org/2000/svg">
<path fill-rule="evenodd" clip-rule="evenodd" d="M2.25 12.6525V6.94275H15.75V12.6982C15.75 15.0525 14.2681 16.5 11.8971 16.5H6.0955C3.74671 16.5 2.25 15.0225 2.25 12.6525ZM5.96954 10.8075C5.6287 10.8232 5.34715 10.5525 5.33233 10.2082C5.33233 9.86325 5.59907 9.57825 5.9399 9.5625C6.27333 9.5625 6.54748 9.82575 6.55488 10.1625C6.5697 10.5082 6.30296 10.7932 5.96954 10.8075ZM9.01482 10.8075C8.67399 10.8232 8.39243 10.5525 8.37761 10.2082C8.37761 9.86325 8.64435 9.57825 8.98518 9.5625C9.31861 9.5625 9.59276 9.82575 9.60016 10.1625C9.61498 10.5082 9.34824 10.7932 9.01482 10.8075ZM12.0379 13.5675C11.697 13.56 11.4229 13.275 11.4229 12.93C11.4155 12.585 11.6896 12.3007 12.0305 12.2932H12.0379C12.3861 12.2932 12.6677 12.5782 12.6677 12.93C12.6677 13.2825 12.3861 13.5675 12.0379 13.5675ZM8.37761 12.93C8.39243 13.275 8.67399 13.5457 9.01482 13.53C9.34824 13.5157 9.61498 13.2307 9.60016 12.8857C9.59276 12.5482 9.31861 12.285 8.98518 12.285C8.64435 12.3007 8.37761 12.585 8.37761 12.93ZM5.32492 12.93C5.33974 13.275 5.6213 13.5457 5.96213 13.53C6.29555 13.5157 6.56229 13.2307 6.54748 12.8857C6.54007 12.5482 6.26592 12.285 5.93249 12.285C5.59166 12.3007 5.32492 12.585 5.32492 12.93ZM11.4303 10.2007C11.4303 9.85575 11.697 9.57825 12.0379 9.57075C12.3713 9.57075 12.638 9.84 12.6529 10.1707C12.6603 10.5157 12.3935 10.8007 12.0601 10.8075C11.7193 10.815 11.4377 10.5525 11.4303 10.2082V10.2007Z" fill="white"/>
<path opacity="0.4" d="M2.25244 6.94268C2.26207 6.50243 2.29912 5.62868 2.36877 5.34743C2.72442 3.76568 3.93216 2.76068 5.65856 2.61743H12.3419C14.0535 2.76818 15.276 3.77993 15.6317 5.34743C15.7006 5.62118 15.7376 6.50168 15.7473 6.94268H2.25244Z" fill="white"/>
<path d="M6.22873 4.9425C6.55475 4.9425 6.79926 4.69575 6.79926 4.365V2.07825C6.79926 1.7475 6.55475 1.5 6.22873 1.5C5.90271 1.5 5.6582 1.7475 5.6582 2.07825V4.365C5.6582 4.69575 5.90271 4.9425 6.22873 4.9425Z" fill="white"/>
<path d="M11.7712 4.9425C12.0898 4.9425 12.3417 4.69575 12.3417 4.365V2.07825C12.3417 1.7475 12.0898 1.5 11.7712 1.5C11.4452 1.5 11.2007 1.7475 11.2007 2.07825V4.365C11.2007 4.69575 11.4452 4.9425 11.7712 4.9425Z" fill="white"/>
</svg>
