<svg width="27" height="18" viewBox="0 0 27 18" fill="none" xmlns="http://www.w3.org/2000/svg">
<path d="M20.9479 8.5345L22.3445 7.13794L23.741 6.20691L25.6031 7.13794L26.5341 8.5345V9.93105L25.6031 10.8621L23.741 11.3276L22.3445 10.8621H20.9479L20.4824 9.93105L20.9479 8.5345Z" fill="#766E31"/>
<path d="M20.0163 13.6552L21.4129 12.2586L22.8094 11.3276L25.137 12.2586L25.6025 13.6552V15.0517L24.6715 15.9827L22.8094 16.4483L21.4129 15.9827H20.0163L19.5508 15.0517L20.0163 13.6552Z" fill="#766E31"/>
<path d="M6.01625 9.21155L4.51227 7.68804L3.00829 6.67236L1.00299 7.68804L0.000336647 9.21155V10.7351L1.00299 11.7507L3.00829 12.2586L4.51227 11.7507H6.01625L6.51758 10.7351L6.01625 9.21155Z" fill="#766E31"/>
<path d="M6.94789 12.9357L5.44391 11.4122L3.93993 10.3965L1.93463 11.4122L0.931977 12.9357V14.4592L1.93463 15.4749L3.93993 15.9828L5.44391 15.4749H6.94789L7.44922 14.4592L6.94789 12.9357Z" fill="#766E31"/>
<path fill-rule="evenodd" clip-rule="evenodd" d="M8.51571 0.170241C8.1808 0.204609 7.67 0.378823 7.23219 0.607993C6.888 0.788172 6.6322 1.00795 5.50944 2.08839L4.1909 3.35719L4.13141 3.09481C3.98605 2.4535 3.71828 2.27126 2.9251 2.27385C1.5736 2.27833 0.800092 2.89357 1.13558 3.69722C1.30319 4.09876 1.95033 4.60366 2.5509 4.80148C2.63434 4.82893 2.51256 4.97553 1.83377 5.66452C0.94877 6.56288 0.670031 6.95935 0.361704 7.75815C0.0250541 8.63048 0.000265699 8.86245 1.9909e-06 11.1402C-0.000261717 13.37 0.0253178 13.6426 0.288551 14.2182C0.363391 14.3817 0.515182 14.6356 0.625886 14.7824L0.827201 15.0494L0.85162 15.8965C0.872611 16.6267 0.891809 16.7763 0.990489 16.9804C1.14771 17.3055 1.39459 17.5456 1.73842 17.7079C2.0238 17.8426 2.04769 17.8448 3.21518 17.8448C4.34976 17.8448 4.414 17.8393 4.67755 17.7201C4.97759 17.5843 5.34473 17.2243 5.45549 16.9574C5.49388 16.8647 5.54235 16.6286 5.56308 16.4326L5.60084 16.0763H13.4998H21.3987L21.4351 16.4326C21.4986 17.0554 21.7721 17.4552 22.3076 17.7079C22.593 17.8426 22.6169 17.8448 23.7844 17.8448C24.9519 17.8448 24.9758 17.8426 25.2612 17.7079C25.605 17.5456 25.8519 17.3055 26.0091 16.9804C26.1078 16.7763 26.127 16.6267 26.148 15.8965L26.1724 15.0494L26.3737 14.7824C26.4844 14.6356 26.6362 14.3817 26.711 14.2182C26.9736 13.644 26.9998 13.3677 27 11.1666C27.0003 8.91044 26.9686 8.61063 26.6397 7.76153C26.3284 6.95766 26.0512 6.5633 25.1658 5.66452C24.487 4.97553 24.3652 4.82893 24.4487 4.80148C25.0492 4.60366 25.6964 4.09876 25.864 3.69722C26.1995 2.89357 25.426 2.27833 24.0745 2.27385C23.2813 2.27126 23.0135 2.4535 22.8682 3.09481L22.8087 3.35719L21.4901 2.08839C20.0857 0.736964 19.8559 0.568135 19.0303 0.281104L18.6948 0.164487L13.7108 0.156568C10.9695 0.152186 8.63174 0.15831 8.51571 0.170241ZM18.8949 1.73658C19.3183 1.91586 19.6483 2.20437 21.4638 3.98283L22.7032 5.19694L13.513 5.19905C8.45833 5.20016 4.32275 5.1924 4.32275 5.18174C4.32275 5.17107 5.06198 4.44603 5.9655 3.57058C7.35914 2.22016 7.65903 1.95451 7.94346 1.81862C8.12785 1.73056 8.37953 1.63823 8.50268 1.61347C8.62589 1.58871 10.9339 1.57213 13.6316 1.57667L18.5366 1.58486L18.8949 1.73658ZM3.03823 7.47582C3.77287 7.69986 4.96842 8.41699 5.57779 8.99918C6.68763 10.0595 5.97815 10.5238 3.33021 10.4702C2.38223 10.451 2.26805 10.4384 2.01378 10.3256C1.67149 10.1737 1.30499 9.78045 1.18948 9.44116C0.897083 8.58212 1.40135 7.62347 2.25096 7.42323C2.55755 7.35096 2.64863 7.35703 3.03823 7.47582ZM25.0238 7.51932C25.7011 7.82102 26.0616 8.70228 25.8101 9.44116C25.6945 9.78072 25.328 10.1738 24.9858 10.3253C24.7339 10.4368 24.6131 10.4506 23.7173 10.4702C21.0363 10.5286 20.3223 10.0747 21.4176 9.00816C22.0016 8.43938 23.1443 7.74305 23.9093 7.48965C24.3329 7.34938 24.662 7.35814 25.0238 7.51932ZM19.6568 9.75443C19.6212 10.2243 19.4243 10.8054 19.1712 11.187C18.9765 11.4805 18.7837 11.6548 18.4575 11.8319C18.2801 11.9282 18.0876 11.9321 13.4998 11.9321H8.72668L8.50036 11.8112C7.8835 11.4814 7.41062 10.6411 7.343 9.75443L7.31378 9.37168H13.4998H19.6858L19.6568 9.75443ZM5.87863 13.4218C6.37176 13.9908 6.78315 14.4763 6.7928 14.5008C6.8025 14.5253 6.0117 14.5453 5.0355 14.5453H3.26059L2.85548 14.3767C1.93525 13.9938 1.58673 13.3036 1.95186 12.5871L2.05703 12.3808L3.5195 12.3841L4.98202 12.3873L5.87863 13.4218ZM25.052 12.5956C25.1122 12.7137 25.1751 12.9256 25.1918 13.0663C25.2526 13.5806 24.8457 14.0842 24.1274 14.3834L23.739 14.5453H21.9641C20.9879 14.5453 20.1971 14.5258 20.2068 14.5019C20.2164 14.478 20.6278 13.9925 21.1209 13.4229L22.0176 12.3874L23.4801 12.3842L24.9425 12.3808L25.052 12.5956ZM19.1708 13.2123C19.1021 13.582 18.9227 13.9105 18.661 14.146C18.1944 14.566 18.462 14.5453 13.4998 14.5453C8.53755 14.5453 8.80521 14.566 8.3386 14.146C8.07685 13.9105 7.89747 13.582 7.82875 13.2123L7.79194 13.0143H13.4998H19.2076L19.1708 13.2123Z" fill="#ECD126"/>
</svg>
