<svg width="15" height="14" viewBox="0 0 15 14" fill="none" xmlns="http://www.w3.org/2000/svg">
<path fill-rule="evenodd" clip-rule="evenodd" d="M6.84072 0.0099786C5.8563 0.111354 5.04552 0.338939 4.20076 0.751065C2.30032 1.67821 0.849646 3.39675 0.285801 5.38898C-0.535473 8.2908 0.447804 11.3828 2.79108 13.2669C3.09365 13.5102 3.65354 13.8838 3.81736 13.9518C4.27845 14.143 4.78487 13.7366 4.70105 13.2427C4.66681 13.0409 4.54811 12.9016 4.2462 12.7088C2.68008 11.7088 1.64064 10.1513 1.37775 8.41064C1.31534 7.99744 1.30921 7.90765 1.31009 7.41991C1.31109 6.86296 1.35993 6.46145 1.49007 5.94086C2.02589 3.79712 3.79279 2.02745 5.94305 1.481C7.39211 1.11274 8.92668 1.26693 10.2177 1.91055C11.8678 2.73314 13.0795 4.21625 13.5106 5.94086C13.6455 6.48048 13.6901 6.86013 13.6895 7.46225C13.6878 8.97825 13.2843 10.161 12.4804 11.0065C11.844 11.6757 11.0527 12.0193 10.245 11.9772C9.88392 11.9584 9.66962 11.904 9.36194 11.7529C8.94861 11.55 8.65937 11.2574 8.45243 10.8327C8.25885 10.4354 8.25724 10.4567 8.48526 10.3953C8.59221 10.3665 8.79725 10.286 8.9409 10.2164C9.72497 9.83653 10.2563 9.18704 10.4962 8.31534C10.5535 8.10713 10.5593 7.99852 10.5708 6.91353C10.5818 5.87015 10.5779 5.72933 10.5362 5.66603C10.4897 5.59524 10.4854 5.59465 10.0209 5.59465H9.5525L9.5518 4.71192C9.55139 4.21704 9.53787 3.7715 9.52101 3.69787C9.4501 3.38779 9.20657 3.19053 8.89558 3.19126C8.62836 3.1919 8.43636 3.30556 8.31103 3.53738C8.25064 3.64908 8.24753 3.69592 8.2388 4.62438L8.22968 5.59465H7.50034H6.77101L6.76189 4.62438C6.75315 3.69592 6.75004 3.64908 6.68965 3.53738C6.56432 3.30556 6.37233 3.1919 6.10511 3.19126C5.79412 3.19053 5.55059 3.38779 5.47967 3.69787C5.46281 3.7715 5.4493 4.21704 5.44889 4.71192L5.44818 5.59465H4.97979C4.51592 5.59465 4.51096 5.59532 4.46464 5.66568C4.42328 5.72851 4.41935 5.8705 4.43046 6.89859C4.44412 8.16269 4.45151 8.22987 4.62621 8.68007C4.97604 9.58163 5.81271 10.2743 6.76412 10.4501L6.95139 10.4847L7.02984 10.7608C7.20662 11.3828 7.49014 11.8668 7.93643 12.3083C8.35295 12.7203 8.79261 12.9814 9.33183 13.137C9.7041 13.2443 9.93036 13.2748 10.3591 13.2751C10.9986 13.2757 11.5796 13.1341 12.1781 12.8319C12.6138 12.612 12.9627 12.3573 13.3364 11.9865C13.9292 11.3981 14.3435 10.7181 14.6419 9.84368C15.0163 8.74661 15.1039 7.31757 14.8726 6.07614C14.4417 3.76222 12.9356 1.79295 10.7999 0.751065C10.0917 0.405559 9.38387 0.183052 8.61437 0.0640222C8.31827 0.0182368 7.11627 -0.0184147 6.84072 0.0099786Z" fill="#757B8C"/>
</svg>
