<svg width="25" height="21" viewBox="0 0 25 21" fill="none" xmlns="http://www.w3.org/2000/svg">
<path fill-rule="evenodd" clip-rule="evenodd" d="M4.005 4.0975C3.05769 4.3457 2.252 5.04356 1.85385 5.9607C1.49401 6.78968 1.53904 7.8974 1.96502 8.69665C2.38641 9.48733 3.17394 10.1043 4.04296 10.3245C4.45737 10.4296 5.1839 10.4276 5.59236 10.3202C6.5342 10.0726 7.39595 9.33791 7.76166 8.47068C8.13889 7.57605 8.09439 6.5503 7.64061 5.67988C7.39411 5.20707 6.80597 4.61893 6.33316 4.37243C5.62804 4.00483 4.75307 3.90151 4.005 4.0975ZM19.1116 4.0975C18.2913 4.31239 17.4822 4.94929 17.1013 5.67988C16.6475 6.5503 16.6031 7.57605 16.9803 8.47068C17.346 9.33791 18.2077 10.0726 19.1496 10.3202C19.558 10.4276 20.2846 10.4296 20.699 10.3245C22.1198 9.9644 23.1246 8.69282 23.1291 7.24903C23.1322 6.27242 22.8032 5.50755 22.0949 4.84504C21.3187 4.11895 20.1487 3.82578 19.1116 4.0975ZM3.08214 11.3631C1.69344 11.5432 0.552699 12.5286 0.113493 13.9273C0.000532694 14.287 0 14.3006 0 16.8065V19.3243L0.112235 19.6022C0.339512 20.1649 0.80651 20.6318 1.36831 20.8578C1.63878 20.9667 1.69504 20.9701 3.47143 20.9849L5.29662 21L5.24026 20.84C5.16511 20.6265 5.13064 13.2907 5.20152 12.5941C5.22864 12.3278 5.28669 11.9791 5.33056 11.8194C5.37447 11.6596 5.42115 11.4799 5.43437 11.4199L5.45838 11.311L4.42387 11.3171C3.85485 11.3205 3.25107 11.3412 3.08214 11.3631ZM19.3076 11.4199C19.3208 11.4799 19.3675 11.6596 19.4114 11.8194C19.4553 11.9791 19.5133 12.3278 19.5404 12.5941C19.6113 13.2907 19.5768 20.6265 19.5017 20.84L19.4453 21L21.2705 20.9849C23.0469 20.9701 23.1032 20.9667 23.3736 20.8578C23.9354 20.6318 24.4024 20.1649 24.6297 19.6022L24.7419 19.3243V16.8065C24.7419 14.3006 24.7414 14.287 24.6284 13.9273C24.2634 12.7648 23.4421 11.9019 22.3458 11.529C21.8549 11.3621 21.3629 11.311 20.2468 11.311H19.2836L19.3076 11.4199Z" fill="#706625"/>
<path fill-rule="evenodd" clip-rule="evenodd" d="M11.6767 0.0284223C10.7032 0.205393 9.90751 0.641064 9.21997 1.37373C7.65348 3.04311 7.70355 5.64886 9.3339 7.30347C10.782 8.77312 13.0799 8.98539 14.8137 7.80974C15.1743 7.56522 15.6542 7.08138 15.9106 6.70376C17.0442 5.03453 16.883 2.82412 15.522 1.37373C14.6753 0.471405 13.7263 0.0387836 12.5163 0.00348638C12.1834 -0.00619736 11.8056 0.0049877 11.6767 0.0284223ZM9.44168 9.5425C8.70663 9.70954 8.22133 9.98054 7.66999 10.5318C7.21113 10.9907 6.96347 11.3851 6.76011 11.9807L6.6334 12.3519L6.62056 16.4191C6.60798 20.417 6.60938 20.489 6.70486 20.6441C6.75827 20.7309 6.87297 20.8452 6.95979 20.8981C7.11468 20.9925 7.21413 20.9943 12.371 20.9943C17.5279 20.9943 17.6273 20.9925 17.7822 20.8981C17.869 20.8452 17.9837 20.7309 18.0372 20.6441C18.1326 20.489 18.134 20.417 18.1215 16.4191L18.1086 12.3519L17.9819 11.9807C17.7786 11.3851 17.5309 10.9907 17.072 10.5318C16.6129 10.0727 16.2182 9.82492 15.6231 9.62224L15.2519 9.49582L12.4921 9.48614C10.3083 9.47854 9.67152 9.4903 9.44168 9.5425Z" fill="#ECD126"/>
</svg>
