<svg width="18" height="18" viewBox="0 0 18 18" fill="none" xmlns="http://www.w3.org/2000/svg">
<path opacity="0.4" d="M16.5 11.9552C16.5 14.0477 14.82 15.7427 12.7275 15.7502H12.72H5.2875C3.2025 15.7502 1.5 14.0627 1.5 11.9702V11.9627C1.5 11.9627 1.5045 8.64315 1.5105 6.97365C1.51125 6.66015 1.87125 6.48465 2.1165 6.67965C3.8985 8.0934 7.08525 10.6712 7.125 10.7049C7.6575 11.1317 8.3325 11.3724 9.0225 11.3724C9.7125 11.3724 10.3875 11.1317 10.92 10.6967C10.9598 10.6704 14.0753 8.1699 15.8843 6.7329C16.1303 6.53715 16.4917 6.71265 16.4925 7.0254C16.5 8.68215 16.5 11.9552 16.5 11.9552Z" fill="white"/>
<path d="M16.1072 4.25519C15.4577 3.03119 14.1797 2.24969 12.7727 2.24969H5.28766C3.88066 2.24969 2.60266 3.03119 1.95316 4.25519C1.80766 4.52894 1.87666 4.87019 2.11891 5.06369L7.68766 9.51794C8.07766 9.83294 8.55016 9.98969 9.02266 9.98969C9.02566 9.98969 9.02791 9.98969 9.03016 9.98969C9.03241 9.98969 9.03541 9.98969 9.03766 9.98969C9.51016 9.98969 9.98266 9.83294 10.3727 9.51794L15.9414 5.06369C16.1837 4.87019 16.2527 4.52894 16.1072 4.25519Z" fill="white"/>
</svg>
