<svg width="18" height="18" viewBox="0 0 18 18" fill="none" xmlns="http://www.w3.org/2000/svg">
<path fill-rule="evenodd" clip-rule="evenodd" d="M6.39872 2.20258C8.03736 1.25046 10.0515 1.2671 11.6748 2.24617C13.2821 3.24519 14.259 5.02813 14.2499 6.94608C14.2125 8.85145 13.165 10.6425 11.8556 12.0271C11.0999 12.8298 10.2545 13.5396 9.33663 14.142C9.24211 14.1967 9.13856 14.2333 9.03111 14.25C8.9277 14.2456 8.82699 14.215 8.73806 14.1611C7.33682 13.2559 6.1075 12.1005 5.10925 10.7505C4.27394 9.62352 3.79938 8.26201 3.75 6.85081C3.74892 4.92918 4.76007 3.1547 6.39872 2.20258ZM7.34562 7.64609C7.62126 8.32563 8.27189 8.76888 8.9937 8.76889C9.46658 8.77228 9.92114 8.58287 10.2561 8.24286C10.5911 7.90284 10.7786 7.44048 10.7769 6.95879C10.7795 6.22353 10.3466 5.55924 9.68045 5.27608C9.0143 4.99293 8.24628 5.14676 7.73499 5.66576C7.22369 6.18476 7.06998 6.96654 7.34562 7.64609Z" fill="white"/>
<ellipse opacity="0.4" cx="9" cy="15.75" rx="3.75" ry="0.75" fill="white"/>
</svg>
