<svg width="17" height="14" viewBox="0 0 17 14" fill="none" xmlns="http://www.w3.org/2000/svg">
<path fill-rule="evenodd" clip-rule="evenodd" d="M2.47709 0.522514C1.58722 0.636436 0.85731 1.25981 0.573301 2.14842L0.5 2.37777V7.00164V11.6255L0.573301 11.8549C0.779037 12.4986 1.19251 12.9828 1.77954 13.2675C2.29903 13.5195 1.72472 13.4996 8.48991 13.4996C15.2551 13.4996 14.6808 13.5195 15.2003 13.2675C15.7797 12.9865 16.1884 12.5126 16.4043 11.8713C16.474 11.6642 16.4772 11.6118 16.4884 10.4671L16.5 9.27806L14.1445 9.26718C12.0036 9.25732 11.772 9.25139 11.6014 9.20199C10.178 8.7898 9.48773 7.29655 10.1195 5.99613C10.319 5.58526 10.7522 5.16607 11.1887 4.96124C11.665 4.73776 11.5285 4.74814 14.1445 4.7361L16.5 4.72522L16.4884 3.53614C16.4772 2.39148 16.474 2.33903 16.4043 2.13199C16.1884 1.4907 15.7796 1.0167 15.2003 0.735796C14.684 0.485462 15.2645 0.506231 8.615 0.500485C5.33257 0.497659 2.59448 0.50746 2.47709 0.522514ZM11.7705 5.70813C11.3263 5.84773 10.9682 6.21915 10.8516 6.66104C10.664 7.37229 11.0866 8.09502 11.8142 8.30729C11.9486 8.34652 12.3128 8.35347 14.234 8.35347H16.4955V7.00164V5.64981L14.2205 5.65147C12.1231 5.65298 11.9318 5.6574 11.7705 5.70813ZM12.9588 6.58091C13.0174 6.6011 13.1069 6.66841 13.1578 6.73054C13.2335 6.82292 13.2504 6.87233 13.2504 7.00164C13.2504 7.13095 13.2335 7.18036 13.1578 7.27274C13.0322 7.42602 12.9144 7.45902 12.4927 7.45902C12.071 7.45902 11.9532 7.42602 11.8275 7.27274C11.7518 7.18036 11.7349 7.13095 11.7349 7.00164C11.7349 6.87233 11.7518 6.82292 11.8275 6.73054C11.9532 6.57726 12.071 6.54426 12.4927 6.54426C12.691 6.54426 12.9001 6.5607 12.9588 6.58091Z" fill="#282C38"/>
</svg>
